<svg xmlns="http://www.w3.org/2000/svg" width="32" height="33" viewBox="0 0 32 33">
    <g fill="none" fill-rule="evenodd">
        <g>
            <g>
                <g transform="translate(-321 -60) translate(321 60)">
                    <path fill="#FFF" fill-rule="nonzero" d="M22.928 21.16L20.782 8.702c-.303-2.19-2.141-3.842-4.351-3.91h-.134C16.297 2.145 14.15 0 11.505 0S6.713 2.145 6.713 4.792H6.58c-2.21.068-4.048 1.72-4.35 3.91L.08 21.16c-.267 1.464.13 2.97 1.083 4.112.803.98 2.001 1.553 3.268 1.562h14.146c1.267-.01 2.464-.582 3.268-1.562.953-1.142 1.35-2.648 1.082-4.112zM11.505 1.917c1.588 0 2.875 1.287 2.875 2.875H8.63c0-1.588 1.287-2.875 2.875-2.875zm8.874 22.118c-.438.549-1.1.872-1.801.882H4.432c-.702-.01-1.363-.333-1.801-.882-.592-.707-.834-1.643-.662-2.549L4.116 9.028c.147-1.27 1.187-2.249 2.463-2.32h9.852c1.276.071 2.316 1.05 2.463 2.32l2.147 12.458c.172.906-.07 1.842-.662 2.55z"/>
                    <circle cx="22" cy="23" r="10" fill="#30D38B"/>
                </g>
            </g>
        </g>
    </g>
</svg>
