<svg xmlns="http://www.w3.org/2000/svg" xmlns:xlink="http://www.w3.org/1999/xlink" width="113" height="38" viewBox="0 0 113 38">
    <defs>
        <path id="9nevxh3j7a" d="M0 0.137L35.9 0.137 35.9 37.692 0 37.692z"/>
        <path id="jxahfzjwsc" d="M0.013 0.107L21.732 0.107 21.732 37.239 0.013 37.239z"/>
    </defs>
    <g fill="none" fill-rule="evenodd">
        <g>
            <g>
                <path fill="#FEFEFE" d="M78.437 18.748c0-5.96.01-11.92-.016-17.881-.002-.652.105-.881.826-.863 2.23.056 4.463.047 6.693.004.648-.013.799.166.795.803-.03 4.615-.002 9.23-.031 13.846-.005.665.132.884.845.88 5.38-.033 10.76-.034 16.139 0 .711.005.84-.206.837-.866-.03-4.616-.003-9.231-.03-13.846-.004-.628.13-.83.792-.817 2.23.044 4.463.06 6.693-.007.8-.024.858.295.858.94-.016 11.035-.012 22.069-.012 33.103 0 .917-.024 1.835.01 2.75.018.5-.109.693-.653.686-2.292-.03-4.585-.036-6.876.002-.636.01-.818-.156-.813-.804.03-4.249-.003-8.498.032-12.746.006-.727-.121-.98-.925-.974-5.348.04-10.698.035-16.046.003-.702-.004-.857.195-.852.87.031 4.28.003 8.558.03 12.837.005.622-.12.83-.785.816-2.261-.045-4.524-.041-6.785-.001-.62.011-.741-.184-.74-.763.021-5.99.014-11.981.014-17.972" transform="translate(-43 -122) translate(43 122)"/>
                <g transform="translate(-43 -122) translate(43 122) translate(0 .018)">
                    <mask id="0da4v2q5sb" fill="#fff">
                        <use xlink:href="#9nevxh3j7a"/>
                    </mask>
                    <path fill="#FEFEFE" d="M0 37.603l7.75-11.31c1.62-2.366 3.217-4.748 4.874-7.088.375-.529.321-.851-.021-1.35C8.689 12.143 4.8 6.415.906.692.823.57.75.443.672.315c.207-.268.47-.147.687-.148 2.66-.01 5.32.028 7.977-.03.723-.015 1.081.254 1.442.818 2.382 3.724 4.794 7.428 7.205 11.15.4-.142.501-.522.69-.81 2.308-3.52 4.607-7.043 6.903-10.57.202-.31.355-.58.823-.577 2.933.025 5.866.013 8.956.013-1.096 1.618-2.123 3.146-3.162 4.666-2.945 4.305-5.877 8.62-8.861 12.896-.417.596-.333.938.036 1.476 4.072 5.936 8.119 11.89 12.172 17.838.098.144.187.295.36.566-2.272 0-4.425.006-6.578-.002-1.034-.004-2.236.285-3.054-.145-.781-.41-1.17-1.578-1.72-2.419-2.09-3.188-4.173-6.38-6.261-9.568-.131-.2-.284-.386-.459-.621-2.683 4.074-5.343 8.09-7.97 12.128-.305.47-.606.647-1.163.641-2.836-.03-5.674-.014-8.695-.014" mask="url(#0da4v2q5sb)"/>
                </g>
                <path fill="#FEFEFE" d="M42.956 21.329c2.79 0 5.439.027 8.087-.018.733-.013.902.166.823.901-.522 4.855-1.006 9.714-1.474 14.575-.051.532-.268.504-.644.399-6.287-1.767-10.941-5.479-13.285-11.652C32.096 14.026 39.615 1.756 51.878.174c1.525-.196 3.046-.19 4.572-.135.23.009.547-.095.676.153.155.299-.169.484-.312.694C52.31 7.521 47.8 14.151 43.29 20.782c-.084.124-.157.256-.334.547" transform="translate(-43 -122) translate(43 122)"/>
                <g transform="translate(-43 -122) translate(43 122) translate(52.464 .568)">
                    <mask id="1xdhpix70d" fill="#fff">
                        <use xlink:href="#jxahfzjwsc"/>
                    </mask>
                    <path fill="#FEFEFE" d="M.013 37.08c2.453-3.613 4.845-7.138 7.24-10.662 2.379-3.5 4.76-7 7.236-10.64h-.885c-2.506 0-5.012-.003-7.518.005-.408 0-.652.008-.59-.576.502-4.765.979-9.534 1.416-14.306.073-.796.299-.915 1.04-.698C16.363 2.67 21.98 10.35 21.724 19.08c-.242 8.257-6.45 15.631-14.812 17.596-1.974.463-3.973.646-5.997.527-.265-.015-.526-.07-.902-.123" mask="url(#1xdhpix70d)"/>
                </g>
            </g>
        </g>
    </g>
</svg>

